<?xml version="1.0" encoding="UTF-8" standalone="no"?>
<svg
   height="16"
   width="16"
   version="1.1"
   id="svg1"
   sodipodi:docname="keyboard-non-breaking-hyphen-symbolic.svg"
   inkscape:version="1.4 (e7c3feb100, 2024-10-09)"
   xmlns:inkscape="http://www.inkscape.org/namespaces/inkscape"
   xmlns:sodipodi="http://sodipodi.sourceforge.net/DTD/sodipodi-0.dtd"
   xmlns="http://www.w3.org/2000/svg"
   xmlns:svg="http://www.w3.org/2000/svg">
  <defs
     id="defs1">
    <inkscape:path-effect
       effect="fillet_chamfer"
       id="path-effect4"
       is_visible="true"
       lpeversion="1"
       nodesatellites_param="F,0,0,1,0,0,0,1 @ F,0,0,1,0,0,0,1 @ F,0,1,1,0,4,0,1 @ F,0,0,1,0,0,0,1 @ F,0,0,1,0,0,0,1 @ F,0,1,1,0,4,0,1 @ F,0,0,1,0,0,0,1 @ F,0,0,1,0,0,0,1"
       radius="0"
       unit="px"
       method="auto"
       mode="F"
       chamfer_steps="1"
       flexible="false"
       use_knot_distance="true"
       apply_no_radius="true"
       apply_with_radius="true"
       only_selected="false"
       hide_knots="false" />
    <inkscape:path-effect
       effect="fillet_chamfer"
       id="path-effect3"
       is_visible="true"
       lpeversion="1"
       nodesatellites_param="F,0,0,1,0,0,0,1 @ F,0,0,1,0,0,0,1 @ F,0,0,1,0,2,0,1 @ F,0,0,1,0,0,0,1 @ F,0,0,1,0,0,0,1 @ F,0,0,1,0,0,0,1 @ F,0,0,1,0,0,0,1 @ F,0,0,1,0,0,0,1 @ F,0,0,1,0,0,0,1 @ F,0,0,1,0,0,0,1 @ F,0,0,1,0,0,0,1"
       radius="0"
       unit="px"
       method="auto"
       mode="F"
       chamfer_steps="1"
       flexible="false"
       use_knot_distance="true"
       apply_no_radius="true"
       apply_with_radius="true"
       only_selected="false"
       hide_knots="false" />
  </defs>
  <sodipodi:namedview
     id="namedview1"
     pagecolor="#ffffff"
     bordercolor="#000000"
     borderopacity="0.25"
     inkscape:showpageshadow="2"
     inkscape:pageopacity="0.0"
     inkscape:pagecheckerboard="0"
     inkscape:deskcolor="#d1d1d1"
     showgrid="true"
     inkscape:zoom="22.627417"
     inkscape:cx="11.645165"
     inkscape:cy="6.8279999"
     inkscape:window-width="2378"
     inkscape:window-height="1190"
     inkscape:window-x="26"
     inkscape:window-y="23"
     inkscape:window-maximized="0"
     inkscape:current-layer="svg1">
    <inkscape:grid
       id="grid1"
       units="px"
       originx="0"
       originy="0"
       spacingx="1"
       spacingy="1"
       empcolor="#0099e5"
       empopacity="0.30196078"
       color="#0099e5"
       opacity="0.14901961"
       empspacing="5"
       enabled="true"
       visible="true" />
  </sodipodi:namedview>
  <path
     id="path232"
     d="m 0.2122016,3.6074271 h 2.0229885 c 0.1308576,0.021222 0.1980549,0.084878 0.1980549,0.1980541 v 8.3890368 c 0,0.134394 -0.067197,0.198055 -0.1980549,0.198055 H 0.2122016 C 0.0707339,12.392573 0,12.328913 0,12.194518 v -0.424404 c 0.017683,-0.14854 0.088417,-0.226348 0.2122016,-0.226348 H 1.5844385 V 4.4562333 H 0.2122016 C 0.0707339,4.4562333 0,4.3855043 0,4.2440308 V 3.8054812 C 0.017683,3.6746241 0.088417,3.6074271 0.2122016,3.6074271 Z m 13.5667554,0 h 2.008842 C 15.929267,3.6286491 16,3.6923051 16,3.8054812 v 0.4385496 c 0,0.1414684 -0.07073,0.2122025 -0.212201,0.2122025 h -1.372238 v 7.0875327 h 1.372238 C 15.929267,11.572056 16,11.649867 16,11.770114 v 0.424404 c 0,0.134394 -0.07073,0.198055 -0.212201,0.198055 h -2.008842 c -0.152078,0 -0.226348,-0.06366 -0.226348,-0.198055 V 3.8054812 c 0.02829,-0.1308571 0.102563,-0.1980541 0.226348,-0.1980541 z M 4.2440319,7.2148529 h 7.5260831 c 0.130857,0.02122 0.198056,0.08488 0.198056,0.198055 v 1.174182 c 0,0.141468 -0.06719,0.212202 -0.198056,0.212202 H 4.2440319 c -0.1414677,0 -0.2122015,-0.07074 -0.2122015,-0.212202 v -1.174182 c 0.017683,-0.130857 0.088417,-0.198055 0.2122015,-0.198055 z m 0,0"
     style="fill:#000000;fill-opacity:1;fill-rule:nonzero;stroke:none;stroke-width:1.33333"
     aria-label="â´" />
</svg>
