<?xml version="1.0" encoding="UTF-8" standalone="no"?>
<svg
   height="16"
   width="16"
   version="1.1"
   id="svg1"
   sodipodi:docname="keyboard-wj-symbolic.svg"
   inkscape:version="1.4 (e7c3feb100, 2024-10-09)"
   xmlns:inkscape="http://www.inkscape.org/namespaces/inkscape"
   xmlns:sodipodi="http://sodipodi.sourceforge.net/DTD/sodipodi-0.dtd"
   xmlns="http://www.w3.org/2000/svg"
   xmlns:svg="http://www.w3.org/2000/svg">
  <defs
     id="defs1">
    <inkscape:path-effect
       effect="fillet_chamfer"
       id="path-effect4"
       is_visible="true"
       lpeversion="1"
       nodesatellites_param="F,0,0,1,0,0,0,1 @ F,0,0,1,0,0,0,1 @ F,0,1,1,0,4,0,1 @ F,0,0,1,0,0,0,1 @ F,0,0,1,0,0,0,1 @ F,0,1,1,0,4,0,1 @ F,0,0,1,0,0,0,1 @ F,0,0,1,0,0,0,1"
       radius="0"
       unit="px"
       method="auto"
       mode="F"
       chamfer_steps="1"
       flexible="false"
       use_knot_distance="true"
       apply_no_radius="true"
       apply_with_radius="true"
       only_selected="false"
       hide_knots="false" />
    <inkscape:path-effect
       effect="fillet_chamfer"
       id="path-effect3"
       is_visible="true"
       lpeversion="1"
       nodesatellites_param="F,0,0,1,0,0,0,1 @ F,0,0,1,0,0,0,1 @ F,0,0,1,0,2,0,1 @ F,0,0,1,0,0,0,1 @ F,0,0,1,0,0,0,1 @ F,0,0,1,0,0,0,1 @ F,0,0,1,0,0,0,1 @ F,0,0,1,0,0,0,1 @ F,0,0,1,0,0,0,1 @ F,0,0,1,0,0,0,1 @ F,0,0,1,0,0,0,1"
       radius="0"
       unit="px"
       method="auto"
       mode="F"
       chamfer_steps="1"
       flexible="false"
       use_knot_distance="true"
       apply_no_radius="true"
       apply_with_radius="true"
       only_selected="false"
       hide_knots="false" />
  </defs>
  <sodipodi:namedview
     id="namedview1"
     pagecolor="#ffffff"
     bordercolor="#000000"
     borderopacity="0.25"
     inkscape:showpageshadow="2"
     inkscape:pageopacity="0.0"
     inkscape:pagecheckerboard="0"
     inkscape:deskcolor="#d1d1d1"
     showgrid="true"
     inkscape:zoom="22.627417"
     inkscape:cx="6.872194"
     inkscape:cy="8.6841552"
     inkscape:window-width="1292"
     inkscape:window-height="1190"
     inkscape:window-x="26"
     inkscape:window-y="23"
     inkscape:window-maximized="0"
     inkscape:current-layer="svg1">
    <inkscape:grid
       id="grid1"
       units="px"
       originx="0"
       originy="0"
       spacingx="1"
       spacingy="1"
       empcolor="#0099e5"
       empopacity="0.30196078"
       color="#0099e5"
       opacity="0.14901961"
       empspacing="5"
       enabled="true"
       visible="true" />
  </sodipodi:namedview>
  <path
     id="path270"
     d="M 5.1692305,-1.15e-6 H 10.83077 c 0.04038,0.00578 0.06154,0.026919 0.06154,0.061538 v 0.5538462 c 0,0.042305 -0.02115,0.061538 -0.06154,0.061538 H 5.1692305 c -0.04231,0 -0.06154,-0.019233 -0.06154,-0.061538 v -0.5538458 c 0.0038,-0.040383 0.025,-0.061538 0.06154,-0.0615384 z m 0,1.59230745 H 10.83077 c 0.04038,0.01154 0.06154,0.034613 0.06154,0.069231 v 0.5538465 c 0,0.042304 -0.02115,0.061538 -0.06154,0.061538 H 8.3384615 V 13.723075 h 2.4923075 c 0.04038,0.0038 0.06154,0.025 0.06154,0.06154 v 0.553846 c 0,0.03461 -0.02115,0.05385 -0.06154,0.05385 H 5.1692305 c -0.04231,0 -0.06154,-0.01923 -0.06154,-0.05385 v -0.553847 c 0.0038,-0.04231 0.025,-0.06154 0.06154,-0.06154 h 2.492308 V 2.276922 h -2.492308 c -0.04231,0 -0.06154,-0.019234 -0.06154,-0.061538 V 1.6615372 c 0.0038,-0.046152 0.025,-0.069231 0.06154,-0.069231 z m 0,13.7307687 H 10.83077 c 0.04038,0.0038 0.06154,0.025 0.06154,0.06154 v 0.553846 c 0,0.04038 -0.02115,0.06154 -0.06154,0.06154 H 5.1692305 c -0.04231,0 -0.06154,-0.02116 -0.06154,-0.06154 v -0.553847 c 0.0038,-0.04231 0.025,-0.06154 0.06154,-0.06154 z m 0,0"
     style="fill:#000000;fill-opacity:1;fill-rule:nonzero;stroke:none;stroke-width:1.33333"
     aria-label="âº" />
</svg>
